<?xml version="1.0" standalone="no"?>
<!DOCTYPE svg PUBLIC "-//W3C//DTD SVG 20010904//EN"
 "http://www.w3.org/TR/2001/REC-SVG-20010904/DTD/svg10.dtd">
<svg version="1.0" xmlns="http://www.w3.org/2000/svg"
 width="900.000000pt" height="1200.000000pt" viewBox="0 0 900.000000 1200.000000"
 preserveAspectRatio="xMidYMid meet">
<metadata>
Created by potrace 1.12, written by Peter Selinger 2001-2015
</metadata>
<g transform="translate(0.000000,1200.000000) scale(0.100000,-0.100000)"
fill="#000000" stroke="none">
<path d="M4400 10549 c-47 -5 -107 -15 -135 -23 -27 -8 -88 -25 -135 -37 -140
-35 -249 -69 -288 -89 -20 -10 -68 -32 -107 -49 -96 -41 -178 -87 -200 -111
-14 -16 -15 -20 -4 -20 8 0 19 4 24 9 6 5 21 12 35 16 24 7 23 6 -6 -21 -33
-30 -48 -40 -129 -87 -95 -54 -157 -95 -209 -138 -78 -65 -257 -246 -317 -321
-104 -129 -146 -183 -169 -223 -13 -22 -31 -49 -40 -60 -10 -11 -35 -51 -55
-90 -21 -38 -51 -93 -66 -121 -16 -28 -29 -58 -29 -66 0 -9 -11 -31 -24 -51
-14 -20 -24 -44 -24 -54 1 -25 -19 -73 -31 -73 -5 0 -14 -14 -20 -31 -14 -39
-14 -59 -1 -39 7 10 10 11 10 2 0 -7 -9 -20 -20 -29 -13 -12 -16 -20 -9 -29 7
-8 5 -17 -5 -27 -15 -15 -56 -125 -56 -150 0 -8 -9 -22 -20 -32 -12 -10 -18
-25 -16 -32 3 -7 -3 -35 -13 -61 -10 -26 -22 -66 -25 -88 -4 -23 -16 -51 -27
-62 -10 -12 -19 -30 -19 -41 0 -11 -3 -21 -7 -23 -10 -4 -53 -109 -53 -129 0
-9 -3 -19 -7 -23 -5 -4 -8 -11 -9 -14 -2 -18 -19 -48 -33 -60 -9 -8 -10 -11
-3 -7 7 3 12 0 12 -8 0 -8 -10 -17 -21 -20 -14 -4 -20 -11 -16 -21 3 -8 2 -18
-3 -21 -6 -4 -10 0 -11 7 0 7 -4 4 -9 -7 -12 -27 -12 -37 -1 -31 5 3 9 -10 9
-29 0 -19 -4 -35 -9 -35 -5 0 -9 5 -9 10 0 6 -4 10 -9 10 -6 0 -9 -8 -9 -17 2
-39 -82 -334 -92 -328 -12 7 -21 -33 -26 -119 -2 -44 -12 -107 -21 -140 -17
-66 -34 -376 -20 -376 5 0 5 -6 0 -12 -8 -14 -11 -198 -3 -198 3 0 6 -14 7
-30 1 -17 -2 -28 -7 -25 -5 3 -5 -7 0 -26 5 -17 9 -54 9 -83 0 -28 9 -109 20
-180 11 -71 18 -133 15 -137 -2 -4 -1 -20 2 -36 7 -24 8 -25 15 -8 6 19 6 33
-6 106 -4 24 -2 29 8 21 7 -6 13 -44 15 -99 3 -81 2 -86 -12 -68 -14 19 -15
16 -10 -30 4 -27 13 -60 21 -73 11 -17 14 -63 14 -189 0 -92 3 -172 7 -177 20
-33 20 -256 0 -256 -5 0 -8 -7 -8 -16 0 -9 5 -12 11 -8 9 5 10 -1 5 -20 -4
-15 -7 -60 -7 -100 0 -40 -5 -79 -11 -87 -7 -11 -9 -9 -5 9 7 29 -9 29 -17 0
-10 -39 -7 -80 5 -72 7 4 10 1 7 -7 -3 -8 -11 -13 -17 -12 -7 2 -11 -13 -10
-40 l1 -42 9 33 c5 17 12 32 15 32 7 0 -7 -101 -18 -125 -6 -14 -7 -8 -3 18 4
24 2 37 -3 33 -7 -4 -27 -106 -24 -123 1 -2 -8 -32 -18 -68 -10 -36 -16 -65
-12 -65 4 0 -1 -7 -11 -15 -20 -14 -77 -172 -77 -211 0 -12 -6 -29 -13 -36
-36 -38 -133 -376 -136 -475 -3 -81 -7 -116 -19 -163 -5 -19 -6 -57 -2 -85 3
-27 3 -63 -1 -80 -14 -59 -18 -114 -8 -120 5 -4 7 -23 4 -43 -3 -20 -5 -44 -4
-52 6 -76 -2 -257 -14 -301 -14 -51 -35 -153 -58 -279 -6 -30 -17 -83 -26
-118 -32 -130 6 -57 43 83 57 214 76 259 81 188 2 -25 9 -68 20 -113 3 -12 3
-299 1 -415 -3 -111 -27 -315 -42 -343 -9 -17 -29 -67 -45 -109 -16 -43 -43
-109 -60 -147 -18 -38 -29 -76 -26 -84 6 -18 -13 -54 -26 -47 -5 4 -9 5 -9 3
0 -2 -4 -18 -9 -36 -6 -20 -6 -30 0 -27 12 8 11 -8 -5 -89 -8 -38 -13 -74 -10
-78 3 -5 -2 -18 -12 -30 -19 -20 -19 -20 -26 9 -4 15 -12 46 -17 68 -6 22 -14
67 -16 100 -3 33 -8 78 -11 99 -2 22 0 71 5 110 6 39 15 103 20 141 6 39 22
126 37 195 39 187 38 180 21 180 -9 0 -18 -8 -21 -17 -19 -67 -59 -250 -66
-308 -22 -162 -31 -416 -20 -570 5 -70 5 -70 -20 -67 -23 3 -87 23 -135 42
-11 5 -72 25 -135 45 -105 34 -282 101 -337 127 -13 6 -25 9 -28 6 -3 -3 8
-115 24 -249 56 -456 68 -636 77 -1144 3 -154 7 -290 10 -302 4 -23 6 -23 169
-22 153 0 165 1 165 18 0 11 7 21 15 25 8 3 15 1 15 -4 0 -6 -4 -10 -10 -10
-5 0 -10 -4 -10 -10 0 -5 6 -7 14 -4 8 3 17 1 21 -5 4 -8 261 -11 847 -11
l841 0 -5 44 c-5 38 -2 45 14 49 21 6 23 1 32 -54 6 -34 9 -36 38 -33 43 5 47
13 11 20 -21 4 -30 11 -28 23 1 9 -1 28 -6 43 -6 23 -4 27 14 30 19 3 22 8 19
45 -2 23 1 58 7 77 11 43 4 77 -15 69 -19 -7 -18 3 6 72 11 32 18 60 15 63 -2
3 -7 -3 -11 -12 -3 -9 -12 -16 -20 -16 -8 0 -15 -10 -16 -22 0 -13 -2 -35 -3
-49 -4 -47 -39 -149 -51 -149 -23 0 -44 44 -44 92 0 27 -4 48 -10 48 -5 0 -10
7 -10 15 0 11 -11 15 -39 15 -37 0 -39 2 -46 37 -7 40 10 63 47 63 10 0 18 7
18 15 0 8 -4 15 -10 15 -21 0 -9 20 15 26 14 3 25 10 25 14 0 20 -37 17 -98
-8 -60 -25 -70 -27 -94 -15 -16 8 -28 20 -28 28 0 8 -14 30 -31 50 -18 20 -36
55 -41 78 -12 55 -12 59 -3 81 6 14 4 17 -5 14 -24 -8 -50 23 -39 44 7 13 6
18 -5 18 -23 0 -26 26 -6 64 19 38 16 80 -5 72 -18 -7 -26 32 -12 55 9 15 9
21 0 27 -7 5 -15 21 -19 38 -5 27 -3 30 25 32 28 2 31 0 31 -28 0 -17 -4 -40
-10 -50 -5 -10 -7 -26 -3 -35 5 -15 8 -15 25 6 l20 24 -5 -28 c-3 -17 0 -27 9
-27 7 0 14 -5 16 -12 3 -8 11 -5 23 10 19 22 42 31 30 12 -10 -17 24 -23 55
-10 34 14 39 30 10 30 -11 0 -20 4 -20 9 0 10 30 37 39 35 15 -4 42 26 39 42
-4 24 -38 32 -38 9 0 -26 -18 -7 -26 27 -3 18 -18 50 -31 71 -15 24 -23 48
-19 61 2 11 -2 30 -10 40 -19 27 -18 36 6 36 12 0 20 7 20 16 0 10 6 14 14 11
24 -9 33 15 33 85 0 43 7 81 18 104 16 34 13 63 -4 35 -13 -21 -29 -4 -23 24
3 16 10 24 18 21 7 -3 18 2 25 10 10 13 10 17 -1 24 -11 7 -11 11 -1 24 11 13
11 19 1 31 -7 8 -19 15 -27 15 -8 0 -13 8 -11 17 1 10 -1 24 -5 30 -4 7 -4 21
1 30 6 10 18 54 27 98 10 44 21 84 26 89 14 15 11 53 -5 69 -9 9 -12 24 -9 37
4 16 3 21 -5 16 -24 -15 -11 24 13 40 17 11 22 20 16 28 -4 6 -7 19 -6 29 5
26 -14 29 -76 14 -29 -8 -55 -11 -57 -6 -2 4 4 24 14 44 9 20 14 39 10 42 -3
3 -6 1 -6 -5 0 -7 -4 -12 -10 -12 -5 0 -10 7 -10 15 0 8 4 15 9 15 5 0 7 9 4
20 -3 11 -9 20 -14 20 -5 0 -9 9 -9 19 0 11 -5 23 -10 26 -6 4 -7 11 -4 17 4
7 -7 8 -35 3 -33 -5 -41 -4 -41 9 0 10 6 13 17 9 14 -5 13 -3 -3 14 -23 24
-23 23 -30 -13 -6 -34 -13 -46 -23 -40 -9 6 -7 33 4 59 4 9 5 26 2 37 -6 22
16 45 33 35 6 -4 15 -17 20 -29 9 -20 9 -20 9 0 1 11 7 26 13 32 10 10 10 14
1 20 -10 6 -10 17 -3 42 13 46 13 50 -5 50 -9 0 -15 10 -16 25 -1 14 -3 30 -4
35 -1 6 -3 13 -4 16 0 3 -9 -4 -19 -17 l-19 -22 -1 33 c0 19 2 29 6 23 4 -6
19 -9 33 -6 22 4 26 10 27 46 1 22 7 44 12 47 6 4 8 14 5 22 -4 9 -2 19 4 23
6 3 11 17 11 30 0 13 4 26 9 29 4 3 11 28 14 56 3 28 9 56 14 63 4 6 8 18 8
27 10 112 18 150 31 150 9 0 14 11 14 33 0 17 3 43 6 57 5 20 4 22 -6 10 -9
-12 -10 -4 -4 35 4 28 8 61 9 75 2 35 64 162 76 155 5 -4 9 -18 10 -33 l1 -27
10 28 c5 15 14 27 19 27 9 0 59 -74 59 -88 0 -4 7 -17 15 -28 14 -18 15 -17 9
17 -6 41 8 58 31 39 17 -14 46 -6 43 12 -2 7 7 14 19 16 18 3 24 -3 32 -30 5
-18 10 -27 10 -20 1 18 21 15 21 -4 0 -8 4 -12 10 -9 6 4 9 -15 9 -47 -1 -29
1 -83 4 -120 4 -39 2 -70 -3 -73 -6 -4 -10 -11 -10 -16 0 -6 5 -7 10 -4 6 4
17 2 24 -4 11 -9 15 -5 19 19 4 18 13 30 22 30 15 0 15 1 0 16 -21 22 -14 40
15 36 18 -3 21 0 16 13 -5 13 -2 16 9 11 12 -4 15 1 12 27 -2 18 -7 39 -12 47
-33 53 -42 81 -36 117 4 21 2 46 -3 56 -8 13 -8 20 1 25 6 4 14 25 17 47 5 29
4 34 -3 20 -9 -18 -10 -17 -10 7 -1 20 3 26 14 22 12 -5 15 4 15 47 0 53 9 79
26 82 5 1 8 13 7 27 -8 84 -5 132 12 183 10 33 24 61 32 64 7 3 13 11 13 19 0
8 7 14 15 14 8 0 15 6 15 13 0 6 18 31 39 54 33 36 40 52 51 120 7 43 14 114
16 158 2 44 7 97 11 118 l8 38 34 -58 c19 -32 46 -74 61 -93 36 -47 60 -112
60 -161 0 -22 4 -38 9 -35 12 8 19 -59 14 -139 -4 -59 -2 -67 11 -56 11 10 15
9 19 -1 2 -7 3 -4 2 7 -1 11 1 31 5 45 7 21 8 22 9 5 l2 -20 11 20 c14 24 17
36 20 92 3 47 12 55 22 21 7 -22 7 -22 15 -3 5 13 3 23 -7 31 -10 7 -12 18 -7
34 7 24 8 23 24 -8 17 -33 31 -33 31 0 0 10 4 18 9 18 18 0 -7 126 -30 156 -5
6 -6 14 -2 18 4 4 3 10 -2 14 -6 4 -23 27 -39 51 -20 31 -24 42 -12 38 25 -10
20 -1 -34 64 -27 33 -51 64 -51 70 -2 14 -5 21 -17 52 -7 16 -10 32 -7 37 3 4
-1 23 -9 41 -8 19 -19 70 -26 114 -6 44 -15 94 -20 110 -5 17 -11 48 -15 70
-3 22 -10 54 -15 70 -10 32 -28 154 -36 245 -3 30 -11 72 -19 93 -8 20 -15 49
-15 64 0 22 29 -3 204 -180 111 -114 208 -207 213 -207 6 0 10 -8 9 -17 -1
-16 151 -128 237 -173 45 -24 82 -57 82 -72 0 -6 14 -16 30 -22 17 -6 41 -21
52 -33 50 -50 113 -67 282 -74 13 -1 27 5 31 11 4 7 13 9 19 6 6 -4 11 -3 11
2 0 5 12 12 28 15 15 3 35 9 45 12 11 5 17 2 17 -8 0 -16 47 -37 68 -30 24 9
11 22 -18 18 -16 -2 -30 1 -30 6 0 5 4 9 9 9 10 0 9 26 -2 36 -16 17 -4 33 41
54 26 13 55 27 65 32 10 5 22 6 27 3 6 -4 10 -2 10 2 0 5 15 15 33 22 24 10
28 15 15 18 -30 8 -20 19 40 46 103 47 304 163 339 196 12 12 26 21 30 21 5 0
19 10 33 23 20 19 85 57 96 57 5 0 -18 -75 -27 -86 -5 -6 -6 -13 -3 -17 3 -3
-4 -10 -15 -17 -12 -6 -19 -15 -16 -21 4 -5 -1 -9 -9 -9 -9 0 -16 -6 -16 -14
0 -7 -7 -19 -15 -26 -9 -7 -13 -20 -10 -28 4 -10 0 -12 -11 -8 -14 5 -15 4 -5
-8 9 -10 9 -16 1 -21 -6 -4 -22 -25 -36 -47 -14 -22 -34 -42 -44 -45 -11 -3
-16 -11 -13 -19 3 -8 1 -14 -4 -14 -5 0 -25 -13 -43 -30 -18 -16 -41 -30 -50
-30 -8 0 -22 -9 -29 -19 -9 -12 -22 -18 -37 -15 -17 3 -23 -1 -26 -18 -2 -13
-10 -24 -18 -24 -8 -1 -21 -2 -27 -3 -7 0 -13 -8 -13 -16 0 -8 -9 -20 -19 -27
-16 -10 -17 -14 -5 -22 16 -13 9 -25 -29 -49 -15 -10 -25 -21 -23 -26 3 -4 -8
-20 -24 -36 -15 -15 -26 -33 -23 -41 3 -7 -2 -21 -11 -29 -20 -21 -20 -36 0
-61 13 -16 15 -16 10 -2 -5 16 -3 16 17 5 12 -6 25 -16 28 -21 4 -4 16 -5 27
-2 25 8 52 -17 52 -49 0 -13 5 -36 10 -51 13 -33 20 -145 10 -159 -12 -17 -19
-55 -10 -60 18 -11 69 9 106 41 45 40 53 34 60 -49 3 -29 21 -97 40 -152 20
-55 36 -107 36 -115 1 -8 -9 -62 -21 -120 -29 -138 -29 -288 -2 -500 12 -91
26 -175 31 -187 5 -12 5 -25 1 -27 -12 -8 -64 -116 -59 -122 3 -2 16 18 29 46
13 27 26 50 30 50 5 0 53 -178 74 -275 4 -16 9 -39 11 -50 19 -79 16 -97 -18
-127 l-33 -29 38 26 c22 16 37 22 37 15 0 -9 4 -9 17 1 11 10 8 0 -9 -31 -98
-174 -192 -359 -185 -366 3 -3 17 20 31 52 15 31 29 54 32 51 3 -3 0 -15 -6
-27 -6 -12 -10 -24 -8 -26 3 -2 12 12 21 32 10 19 13 33 7 29 -5 -3 -10 -1
-10 5 0 6 7 13 15 16 14 6 31 41 27 56 -1 5 2 8 7 8 5 0 21 25 36 55 21 45 30
54 40 45 21 -18 7 -103 -31 -190 -18 -41 -28 -67 -21 -56 44 67 38 43 -19 -84
-77 -170 -126 -291 -121 -296 2 -2 14 22 27 54 30 75 169 350 180 357 4 3 10
-4 13 -15 10 -38 22 -20 19 29 -4 50 1 63 83 206 19 33 36 65 38 70 2 6 12 4
23 -5 17 -14 18 -14 6 2 -16 20 -12 36 36 146 30 70 33 85 21 93 -11 7 -10 10
7 15 20 5 44 58 44 97 0 8 7 28 15 43 8 16 15 36 15 45 0 8 4 19 10 25 12 12
50 122 49 143 0 14 -1 14 -6 1 -3 -8 -15 -35 -25 -60 -11 -24 -21 -50 -22 -57
-3 -16 -24 -38 -31 -32 -5 6 25 91 36 99 9 7 43 73 44 85 1 6 6 9 12 8 6 -1
13 10 16 25 9 46 69 163 86 169 30 11 49 34 44 53 -3 11 -10 17 -16 13 -15 -9
1 46 24 82 10 17 19 24 19 17 0 -7 5 -10 10 -7 6 3 13 -1 16 -10 8 -20 34 -1
34 26 0 10 5 21 10 24 22 13 8 -34 -16 -59 -15 -14 -28 -38 -30 -52 -1 -14
-11 -32 -21 -40 -15 -11 -16 -13 -2 -14 12 0 18 -14 24 -52 6 -47 8 -50 18
-30 12 25 37 30 37 6 0 -23 -41 -114 -51 -114 -5 0 -9 -4 -9 -10 0 -5 6 -10
14 -10 10 0 14 -14 14 -52 0 -63 -13 -102 -30 -92 -8 5 -9 2 -5 -10 4 -11 -1
-29 -13 -46 -11 -15 -20 -39 -20 -53 0 -29 -16 -82 -35 -118 -8 -14 -11 -30
-7 -34 4 -5 1 -5 -7 0 -10 6 -12 -1 -7 -34 4 -30 2 -41 -8 -41 -7 0 -13 -10
-13 -23 -1 -46 -3 -58 -11 -53 -7 4 -53 -147 -52 -170 2 -22 38 66 45 105 5
31 13 45 27 49 11 3 17 10 14 19 -3 8 -2 12 3 9 11 -7 24 21 25 57 1 18 -4 27
-14 27 -11 1 -8 6 8 20 13 10 23 21 22 24 -1 23 3 27 23 24 18 -2 23 2 25 25
2 19 8 27 19 25 24 -4 24 -37 2 -59 -12 -12 -18 -27 -14 -39 5 -15 11 -17 35
-10 23 7 30 5 30 -5 0 -8 -5 -17 -10 -20 -6 -4 -8 -11 -4 -16 5 -9 30 35 49
86 l7 20 8 -20 c8 -18 9 -18 11 5 8 99 8 97 19 80 6 -10 10 -11 10 -2 0 6 6
12 13 12 16 0 73 -60 81 -85 3 -12 14 -21 23 -22 10 0 32 -3 50 -6 19 -2 34 0
36 7 3 6 10 -2 16 -19 6 -16 16 -40 22 -52 7 -12 8 -27 3 -35 -12 -19 -14 -37
-3 -44 5 -3 9 2 9 10 0 23 17 20 23 -4 3 -11 0 -20 -6 -20 -8 0 -7 -3 1 -9 8
-5 12 -22 10 -42 -2 -26 2 -36 17 -44 11 -6 20 -17 20 -25 0 -8 3 -18 8 -21
13 -9 21 -80 19 -176 -1 -75 1 -91 12 -87 23 9 36 -52 39 -171 1 -33 5 -62 9
-65 15 -12 14 -156 -1 -213 -9 -32 -19 -55 -23 -52 -3 4 -9 -24 -13 -62 -4
-37 -11 -83 -17 -101 l-10 -32 -18 22 c-12 15 -19 18 -20 9 0 -10 -3 -11 -14
-2 -11 10 -16 8 -21 -8 -6 -20 11 -57 30 -64 5 -2 1 -2 -10 0 -11 3 -29 6 -39
7 -11 1 -22 8 -24 14 -18 55 -24 -95 -7 -179 4 -22 3 -39 -3 -43 -11 -6 -62
38 -62 53 0 15 -33 22 -43 9 -6 -9 -7 -8 -3 4 7 24 -11 32 -23 11 -8 -14 -12
-16 -22 -5 -7 6 -27 12 -44 11 -29 -1 -29 -1 -5 -8 14 -4 30 -17 36 -30 8 -16
13 -19 17 -9 4 8 6 7 6 -5 1 -14 6 -17 21 -12 14 5 20 2 20 -10 0 -17 -28 -65
-45 -77 -6 -5 -6 -8 2 -8 8 0 10 -12 6 -38 -6 -32 -4 -35 9 -25 8 7 18 10 21
7 8 -8 31 15 41 41 7 20 8 20 22 1 18 -25 18 -41 -1 -59 -8 -8 -11 -17 -8 -21
3 -3 0 -13 -8 -22 -10 -13 -11 -18 -2 -21 7 -2 10 -10 7 -18 -4 -10 0 -12 15
-8 12 3 21 1 21 -6 0 -6 -17 -10 -40 -9 -49 2 -63 -10 -66 -57 -2 -20 -6 -40
-9 -45 -3 -6 1 -7 10 -4 9 4 14 13 11 20 -3 9 2 14 14 14 11 0 20 5 20 11 0 6
-9 8 -22 4 -22 -6 -22 -6 -4 10 19 14 50 12 69 -4 4 -4 -4 -20 -18 -35 -14
-15 -25 -36 -25 -47 0 -10 -5 -19 -11 -19 -6 0 -8 -7 -5 -16 3 -8 2 -12 -4 -9
-11 7 -42 -37 -38 -54 2 -7 -17 -24 -42 -38 -25 -14 -70 -40 -101 -59 -31 -19
-62 -34 -68 -34 -7 0 -9 -5 -6 -10 4 -7 -2 -9 -17 -5 -16 4 -29 1 -37 -9 -8
-9 -18 -16 -23 -16 -5 0 -16 -7 -24 -15 -9 -8 -33 -15 -54 -15 -21 0 -40 -5
-42 -12 -6 -18 -124 -22 -131 -4 -7 17 -77 19 -82 2 -2 -6 -6 -43 -8 -81 -1
-39 -6 -75 -9 -80 -3 -6 -8 -26 -11 -45 -7 -37 13 -77 32 -66 14 9 3 -95 -19
-179 -26 -97 -32 -155 -15 -149 7 3 18 22 24 42 10 35 10 35 7 -20 -2 -46 1
-57 14 -61 15 -4 17 3 14 57 -2 39 3 73 12 93 8 18 13 47 12 65 -2 18 0 34 5
36 16 5 28 1 22 -8 -3 -5 1 -10 9 -10 20 0 21 16 2 23 -19 8 -9 44 17 62 12 8
16 15 9 15 -7 0 -10 5 -7 10 3 6 -3 10 -14 10 -24 0 -29 28 -6 36 8 4 22 1 30
-6 10 -8 15 -9 15 -2 0 6 -4 14 -10 17 -5 3 -10 17 -10 30 0 18 -6 24 -27 27
-26 3 -28 6 -26 47 1 24 4 46 7 49 7 7 128 -18 141 -29 5 -5 23 -9 40 -9 l30
0 -24 -19 c-14 -11 -20 -21 -13 -25 6 -3 13 0 15 6 3 8 6 6 6 -4 1 -20 -27
-37 -49 -31 -13 4 -13 3 0 -6 13 -9 12 -12 -5 -25 -11 -9 -14 -16 -7 -16 6 0
12 -4 12 -9 0 -10 -58 -27 -75 -22 -5 1 -5 -3 1 -9 7 -7 20 -9 30 -6 11 3 23
7 28 8 17 5 15 -56 -4 -132 -10 -41 -24 -118 -30 -170 -6 -52 -15 -105 -20
-117 -9 -22 -8 -22 72 -21 l80 1 14 34 c18 41 29 43 21 3 -5 -22 -3 -28 7 -24
9 3 17 29 21 66 7 58 8 59 34 53 23 -6 24 -5 8 7 -15 12 -16 18 -7 43 6 16 13
52 16 80 7 81 24 198 29 203 2 3 0 13 -6 23 -5 11 -6 19 -1 19 5 0 15 12 23
26 13 26 15 26 88 20 80 -7 93 -15 87 -58 -6 -39 -14 -48 -45 -48 l-29 0 -7
-112 c-6 -88 -13 -125 -32 -168 -22 -48 -63 -157 -63 -167 0 -1 11 -3 23 -3
19 0 26 8 37 43 14 43 62 140 81 163 6 7 16 11 22 8 7 -2 17 7 24 21 10 22 8
27 -8 35 -21 12 -25 41 -9 71 12 22 31 24 81 6 l37 -13 -16 -29 c-8 -17 -25
-44 -38 -60 -30 -40 -74 -135 -74 -160 0 -11 -10 -25 -22 -30 -11 -6 -28 -20
-36 -33 -14 -22 -14 -22 41 -22 l55 0 17 92 c18 102 34 134 71 148 13 5 24 15
24 21 0 6 -7 8 -16 5 -9 -4 -2 9 15 29 17 20 31 42 31 49 0 8 9 16 20 19 14 4
20 14 20 34 0 29 15 53 33 53 5 0 3 -8 -4 -17 -7 -10 0 -6 16 8 17 14 44 26
60 27 28 2 31 -1 45 -51 14 -52 16 -127 5 -204 -4 -28 -18 -57 -41 -84 -27
-33 -34 -49 -34 -85 0 -43 0 -44 34 -44 29 0 33 3 29 20 -4 14 0 20 12 20 12
0 16 -6 12 -20 -5 -18 0 -20 49 -20 40 0 54 4 54 14 0 8 5 18 12 22 8 5 9 0 6
-14 -5 -19 -2 -22 28 -22 19 0 34 5 34 11 0 8 4 8 15 -1 30 -25 40 -8 35 60
l-5 65 -27 -42 c-26 -39 -30 -42 -52 -32 -29 14 -24 46 10 61 13 6 26 23 29
39 4 16 11 29 17 29 6 0 7 7 4 15 -3 9 1 18 9 21 8 4 15 17 15 29 0 13 4 27
10 30 15 10 12 35 -5 35 -8 0 -15 -5 -15 -12 0 -6 -3 -8 -7 -5 -3 4 -1 17 4
30 16 33 22 66 12 69 -10 4 -13 60 -5 118 l6 45 -13 -37 c-19 -58 -29 -57 -26
2 l4 55 -35 -3 c-19 -2 -40 -9 -46 -17 -6 -8 -9 -48 -7 -94 2 -44 -1 -83 -7
-86 -5 -3 -1 -19 10 -38 25 -41 25 -58 0 -80 -28 -23 -36 -22 -53 11 -9 20
-11 33 -3 44 7 11 7 40 -1 90 -6 41 -6 78 -1 84 6 8 1 10 -17 6 -22 -4 -25 -1
-25 24 0 35 17 59 98 143 63 65 83 107 98 201 7 50 41 130 55 130 5 0 9 -21 9
-46 0 -25 5 -55 11 -67 14 -25 16 -118 5 -282 -4 -66 -9 -203 -10 -305 -1
-102 -6 -211 -11 -242 l-8 -58 299 1 c262 1 295 2 269 14 -25 12 -27 20 -4 17
10 -2 17 58 8 64 -5 2 -4 16 1 30 13 34 12 44 -4 44 -8 0 -16 7 -20 15 -3 9 0
15 9 15 11 0 14 10 12 35 -1 19 -5 35 -9 35 -4 0 -3 12 2 26 6 14 8 30 4 35
-3 5 2 9 10 9 19 0 21 11 4 28 -9 9 -7 12 9 12 25 0 39 -28 18 -36 -8 -4 -12
-11 -8 -17 3 -6 1 -7 -5 -3 -7 4 -12 2 -12 -5 0 -7 9 -9 22 -6 12 4 28 1 36
-5 13 -12 28 -16 64 -20 12 -2 14 -6 7 -19 -13 -25 -11 -32 6 -25 8 3 15 1 15
-3 0 -5 10 -7 22 -3 l22 5 -24 9 c-22 8 -22 9 -5 22 15 11 21 10 39 -8 12 -11
26 -42 32 -68 10 -42 9 -48 -5 -49 -12 0 -11 -2 4 -8 15 -7 23 -3 33 15 14 27
22 30 22 10 0 -8 -12 -28 -26 -45 -24 -29 -24 -36 0 -32 5 1 4 -5 -3 -13 -10
-12 -9 -14 10 -9 22 6 22 6 3 -13 -10 -11 -20 -17 -22 -13 -6 15 -42 -4 -42
-22 0 -18 11 -19 205 -19 l205 0 1 63 c0 34 4 199 9 367 7 277 27 493 65 730
4 28 40 329 55 465 20 186 31 373 28 469 l-3 99 -32 -27 c-18 -15 -33 -34 -33
-43 0 -8 -5 -24 -12 -36 -7 -12 -13 -38 -15 -57 -1 -19 -10 -40 -20 -48 -15
-10 -15 -14 -4 -21 8 -5 11 -16 8 -25 -4 -9 -1 -16 6 -17 7 -1 1 -4 -12 -8
-23 -6 -23 -7 -6 -24 17 -17 17 -19 -1 -32 -11 -8 -14 -15 -7 -15 16 0 -12
-68 -36 -88 -9 -7 -10 -11 -3 -7 19 10 14 -9 -8 -28 -11 -9 -20 -23 -20 -31 0
-9 -8 -13 -22 -10 l-23 5 23 -10 c12 -6 22 -16 22 -23 0 -9 -3 -9 -10 2 -8 13
-10 12 -10 -2 0 -21 -16 -24 -23 -5 -6 17 -28 -4 -30 -31 0 -12 -3 -19 -6 -17
-2 3 -10 0 -18 -7 -7 -6 -17 -8 -21 -4 -4 4 1 13 10 20 10 7 15 16 11 19 -10
10 -32 -25 -33 -51 0 -18 -4 -22 -19 -17 -17 5 -20 1 -19 -25 1 -16 5 -30 10
-30 4 0 8 -15 8 -34 0 -19 6 -36 13 -39 6 -2 -1 -2 -18 1 -30 5 -57 30 -48 44
2 5 -5 25 -15 46 -11 20 -30 60 -41 87 -19 43 -21 45 -15 15 3 -19 12 -47 18
-61 11 -22 10 -28 -3 -38 -14 -11 -14 -11 2 -7 12 4 17 0 17 -14 0 -11 -6 -20
-12 -20 -7 0 -5 -5 5 -11 21 -12 22 -35 2 -43 -8 -3 -15 -10 -15 -17 0 -6 7
-9 15 -5 8 3 15 1 15 -4 0 -13 -23 -25 -42 -22 -10 2 -18 -2 -18 -7 0 -6 5
-11 11 -11 6 0 9 -16 7 -37 -2 -32 -6 -37 -23 -35 -31 6 -32 12 -6 33 13 11
22 22 19 24 -2 3 -14 -4 -26 -15 -12 -11 -31 -20 -44 -21 -22 0 -22 -1 -3 -9
20 -8 20 -9 -1 -9 -24 -1 -48 23 -59 59 -4 14 -12 28 -17 31 -14 9 1 51 15 43
9 -5 9 -4 1 5 -14 15 -5 71 12 71 7 0 16 5 20 12 5 7 1 9 -13 6 -16 -4 -20 0
-20 21 -1 39 -8 74 -21 98 -19 34 -15 56 8 50 11 -3 18 -1 14 4 -3 5 3 6 12 2
13 -5 16 -3 11 9 -3 10 1 19 10 22 10 4 13 2 10 -7 -3 -7 3 -13 14 -14 16 -2
17 1 6 20 -7 12 -13 24 -14 26 -1 2 -28 -13 -59 -34 -73 -49 -84 -49 -99 0
-51 159 -80 363 -62 428 6 24 5 28 -10 27 -10 -1 -21 -2 -25 -1 -4 0 1 30 11
66 12 43 15 65 7 62 -6 -2 -11 -8 -12 -13 0 -5 -6 -20 -12 -34 -10 -24 -11
-24 -11 10 -1 19 -8 66 -18 103 -13 54 -14 82 -6 133 6 44 6 68 -1 75 -8 9 -7
10 2 5 8 -5 12 0 12 13 0 19 -11 26 -34 22 -16 -3 18 173 41 207 20 32 28 118
28 312 0 168 -9 311 -25 410 -5 30 -9 80 -8 110 l1 55 12 -47 c7 -25 16 -80
20 -122 3 -42 10 -78 15 -81 12 -7 18 43 7 54 -8 8 -8 14 0 22 29 29 82 -279
84 -491 1 -86 -6 -221 -17 -319 -4 -37 -2 -51 5 -47 6 4 11 0 10 -11 -1 -22
-17 -62 -19 -48 -2 10 -39 -161 -39 -180 0 -5 6 1 14 15 11 18 14 20 15 8 0
-28 -22 -68 -39 -68 -12 0 -13 -2 -3 -9 10 -6 10 -10 -3 -21 -8 -7 -15 -18
-15 -24 0 -6 8 -2 16 9 17 22 18 27 -2 -78 -10 -51 7 -24 21 35 29 117 42 157
57 172 22 21 45 119 29 124 -13 4 -15 92 -2 92 5 0 11 -12 13 -27 3 -20 5 -14
8 20 4 32 2 46 -6 43 -13 -5 -12 137 1 167 4 9 5 48 1 85 -3 37 -8 155 -11
262 -5 143 -12 218 -26 280 -26 109 -47 211 -58 280 -5 30 -12 63 -16 73 -4 9
-3 17 2 17 9 0 64 -157 94 -270 7 -25 16 -49 21 -54 4 -6 8 -21 8 -35 0 -15 4
-33 9 -40 24 -38 -12 131 -48 229 -24 62 -27 95 -9 84 8 -5 9 -2 5 10 -6 16
-26 84 -63 214 -12 40 -21 58 -26 50 -5 -8 -6 -2 -2 15 3 15 2 27 -4 27 -5 0
-12 10 -16 22 -5 22 -6 23 -21 3 -16 -19 -16 -19 -5 3 6 12 8 27 5 32 -3 6 -3
15 1 21 6 11 14 1 50 -69 10 -17 23 -32 31 -32 15 0 36 -37 29 -53 -2 -7 -8
-2 -11 10 -10 31 -23 29 -17 -2 2 -14 9 -25 14 -25 5 0 7 -4 4 -9 -3 -5 3 -29
15 -52 l20 -44 -5 73 c-3 41 -12 86 -20 100 -26 50 -46 112 -36 112 6 0 39
-13 73 -29 34 -15 69 -31 77 -34 11 -4 10 -7 -7 -12 -34 -11 -19 -23 28 -23
29 -1 58 -11 91 -31 27 -17 51 -31 53 -31 2 0 16 -12 32 -27 31 -30 135 -123
137 -123 7 0 -1 77 -9 83 -6 5 2 7 17 4 15 -2 33 0 40 4 9 6 8 9 -7 9 -17 0
-17 2 -5 10 16 10 10 12 -53 12 -22 1 -31 8 -43 37 -8 20 -35 55 -59 78 -25
23 -45 44 -45 48 0 12 -29 35 -44 35 -19 0 -22 20 -3 20 7 0 5 5 -5 10 -9 6
-19 24 -23 40 -4 18 -13 31 -23 31 -49 5 -68 3 -73 -5 -4 -5 -13 -5 -20 0 -8
5 -18 9 -24 10 -26 5 -65 24 -65 33 0 5 -11 11 -25 13 -13 3 -22 1 -19 -3 10
-17 -8 -9 -38 16 -16 14 -38 25 -48 25 -10 0 -22 5 -25 11 -5 7 5 8 32 4 44
-8 167 -43 203 -58 44 -19 45 -19 20 1 -14 12 -41 24 -60 27 -19 4 -66 18
-104 31 -38 13 -77 24 -85 24 -9 0 -30 15 -48 33 -41 42 -163 275 -163 313 0
22 -3 25 -10 14 -16 -26 -29 30 -19 85 11 57 6 67 -12 26 -12 -27 -49 -51 -49
-31 0 4 -8 6 -18 3 -16 -4 -19 2 -20 32 -1 20 -4 40 -6 44 -7 11 -25 91 -20
91 2 0 10 -12 19 -27 13 -23 15 -24 10 -5 -12 51 -18 64 -24 54 -3 -5 -7 33
-9 86 -2 54 -9 135 -16 182 -8 47 -12 110 -9 140 2 30 4 78 3 105 -6 163 -3
215 17 295 12 47 24 114 28 150 4 36 13 90 20 120 13 52 23 118 24 168 1 12 5
22 10 22 5 0 11 -10 14 -22 2 -13 3 -2 3 24 -1 27 -3 48 -6 48 -12 0 -9 114 3
123 9 7 9 10 -1 14 -6 2 -9 9 -6 15 9 13 8 112 -1 164 -7 38 -5 43 15 49 24 8
24 7 -5 145 -9 41 -16 86 -16 99 2 46 -70 456 -79 459 -6 2 -8 7 -5 12 3 5 -1
14 -8 22 -8 7 -17 33 -21 58 -7 48 -131 371 -204 533 -12 26 -22 53 -22 60 0
6 -7 25 -15 41 -8 15 -13 32 -10 36 3 5 -1 24 -9 42 -28 67 -79 265 -71 277 3
5 0 11 -6 13 -5 2 -12 23 -13 46 -2 24 -6 46 -10 49 -3 4 -6 21 -6 39 0 18
-13 68 -30 110 -16 43 -33 94 -36 114 -4 19 -11 40 -16 46 -5 7 -10 25 -13 40
-2 16 -27 81 -55 144 -29 63 -61 138 -72 165 -30 78 -108 235 -141 285 -16 24
-30 49 -31 55 -6 38 -97 165 -174 243 -27 26 -41 49 -38 58 3 8 -14 35 -42 67
-41 45 -75 77 -193 181 -20 18 -23 18 -34 3 -17 -23 -28 -21 -15 3 9 16 6 22
-19 35 -17 8 -39 15 -49 15 -11 0 -25 7 -32 15 -7 8 -25 15 -41 15 -16 0 -46
6 -66 14 -21 8 -51 17 -68 21 -16 4 -37 13 -45 20 -29 25 -145 82 -217 104
-40 13 -73 27 -73 31 0 4 -9 10 -19 13 -14 3 -18 1 -14 -9 4 -10 0 -12 -11 -8
-9 3 -16 10 -16 14 0 16 -58 30 -140 35 -47 3 -101 9 -120 15 l-35 10 38 -5
c22 -2 35 0 32 6 -7 11 -195 10 -315 -2z m840 -1335 c0 -11 6 -14 20 -9 11 3
20 2 20 -2 0 -15 41 -54 50 -48 5 3 12 -10 15 -29 5 -25 11 -33 24 -29 12 3
20 -6 30 -34 28 -80 49 -84 43 -8 -2 31 0 55 5 55 5 0 19 -21 31 -47 17 -35
22 -41 19 -20 -2 15 0 27 5 27 4 0 5 12 2 26 -4 17 -3 25 3 21 5 -4 20 -45 33
-91 21 -81 78 -215 80 -188 0 23 18 12 31 -20 7 -18 15 -37 17 -42 3 -5 0 -6
-7 -2 -13 8 -13 -1 -1 -29 l9 -20 1 20 c1 15 5 12 19 -15 10 -19 22 -46 26
-60 7 -22 6 -23 -9 -11 -19 16 -20 9 -5 -41 7 -27 17 -40 34 -44 21 -5 41 -41
30 -53 -3 -2 -5 1 -5 7 0 7 -4 12 -10 12 -6 0 -6 -9 0 -25 5 -13 6 -26 2 -29
-10 -6 -43 20 -35 27 3 4 1 7 -5 7 -17 0 -15 -5 15 -51 25 -39 26 -40 7 -55
-10 -9 -13 -12 -5 -8 11 5 13 1 9 -20 -3 -14 -1 -29 4 -32 6 -4 5 -10 -3 -15
-10 -6 -10 -13 1 -36 24 -46 24 -49 7 -34 -14 11 -17 11 -17 0 0 -8 7 -22 14
-31 15 -20 41 -25 30 -5 -5 9 -4 9 6 0 7 -7 14 -20 15 -30 1 -10 5 -25 7 -33
3 -8 11 -35 18 -60 6 -25 21 -65 32 -89 28 -58 37 -141 16 -141 -9 0 -26 23
-39 53 -35 80 -145 152 -192 126 -11 -6 -26 -3 -49 11 -76 45 -75 45 -49 16
14 -14 20 -26 14 -26 -6 0 -16 7 -23 15 -7 9 -20 13 -27 10 -8 -2 -23 0 -34 5
-10 6 -19 7 -19 2 0 -5 -43 -8 -95 -7 -52 1 -95 -2 -95 -7 0 -5 -9 -6 -21 -3
-27 9 -91 -3 -84 -16 4 -5 -5 -9 -18 -9 -13 0 -50 -9 -83 -19 -32 -10 -86 -26
-119 -35 -97 -27 -115 -37 -141 -78 -15 -24 -29 -36 -37 -32 -7 4 -9 4 -5 -1
4 -4 2 -15 -5 -23 -9 -13 -9 -14 1 -8 8 5 12 1 12 -12 0 -21 22 -35 54 -36 23
-1 30 -35 12 -56 -8 -8 -27 -44 -43 -79 -32 -68 -33 -111 -3 -111 10 0 21 -7
24 -16 3 -8 11 -12 17 -8 16 9 29 -17 22 -44 -8 -33 14 -52 58 -52 37 0 39 2
39 30 0 31 45 102 79 127 18 12 20 10 26 -19 15 -67 60 -115 128 -138 55 -17
115 7 163 66 46 55 88 61 107 15 10 -23 16 -28 27 -21 26 17 40 11 40 -16 0
-14 -4 -22 -10 -19 -6 4 -7 -1 -3 -11 5 -13 3 -15 -7 -9 -9 5 -11 4 -6 -3 7
-12 -12 -17 -44 -12 -8 1 -12 -1 -8 -5 10 -11 58 -13 58 -3 0 6 11 7 25 4 19
-5 23 -3 19 9 -5 11 0 14 17 13 18 -2 24 2 22 15 -1 14 4 18 19 14 16 -5 17
-3 7 10 -11 13 -8 14 24 8 30 -6 37 -4 37 9 0 9 7 16 15 16 27 0 65 23 72 44
11 31 10 180 -2 189 -5 5 12 6 39 4 30 -3 43 -1 35 4 -10 6 -10 9 -2 9 7 0 10
6 7 14 -6 17 0 21 42 30 l32 7 12 -68 c7 -37 26 -120 42 -183 16 -63 34 -131
38 -150 12 -49 19 -180 9 -180 -15 0 -22 -69 -24 -255 -1 -104 -5 -212 -9
-240 -11 -86 -29 -175 -36 -175 -6 0 -8 -19 -10 -74 -1 -17 -4 -35 -8 -40 -3
-6 -7 -28 -8 -48 -3 -46 -25 -138 -34 -138 -4 0 -12 -19 -19 -42 -7 -24 -24
-57 -37 -75 -13 -17 -24 -38 -24 -47 0 -8 -7 -22 -16 -30 -8 -9 -13 -16 -10
-16 9 0 -38 -46 -66 -64 -15 -10 -25 -22 -22 -27 3 -5 -2 -9 -11 -9 -9 0 -14
-4 -11 -9 6 -9 -28 -24 -57 -24 -13 0 -15 -3 -6 -13 6 -8 10 -14 8 -15 -2 0
-15 -2 -28 -3 -13 -2 -32 -12 -41 -24 -11 -14 -32 -22 -61 -25 -42 -4 -44 -5
-50 -42 -4 -21 -14 -44 -22 -50 -10 -7 -15 -24 -14 -41 2 -26 -1 -29 -25 -26
-16 2 -28 -1 -28 -7 0 -6 7 -8 15 -5 8 4 15 1 15 -5 0 -6 -8 -11 -17 -11 -15
0 -16 -2 -3 -10 13 -8 11 -11 -7 -16 -13 -4 -23 -10 -23 -14 0 -4 -12 -12 -26
-18 -18 -9 -24 -17 -19 -31 3 -11 1 -22 -4 -26 -7 -3 -8 0 -5 10 5 11 2 14
-10 9 -9 -3 -15 -14 -14 -22 2 -9 -4 -17 -12 -17 -8 0 -15 -4 -16 -10 -2 -27
-18 -45 -41 -45 -18 0 -24 -4 -19 -15 3 -9 -5 -21 -22 -32 -15 -10 -65 -56
-113 -103 -103 -103 -109 -108 -146 -114 -15 -2 -28 -5 -28 -6 0 -3 -27 -8
-77 -14 -21 -2 -63 -10 -95 -17 -32 -6 -76 -13 -98 -14 -22 -2 -71 -8 -110
-14 -69 -12 -88 -10 -210 20 -22 5 -45 11 -52 12 -7 2 -16 6 -19 10 -4 4 -25
7 -47 7 -21 0 -55 7 -75 17 -44 19 -127 84 -162 126 -33 40 -63 70 -143 142
-36 33 -63 63 -61 67 3 5 -1 8 -8 8 -7 1 -25 28 -40 60 -15 33 -32 59 -39 58
-6 -2 -14 3 -17 11 -3 9 0 11 9 6 8 -5 6 0 -4 12 -9 11 -17 25 -17 31 0 7 -5
12 -11 12 -5 0 -8 4 -4 9 3 6 -5 19 -17 30 -12 12 -18 21 -12 21 5 1 -6 7 -23
15 -18 8 -33 19 -33 25 0 5 -11 10 -25 10 -14 0 -33 8 -43 18 -9 9 -27 18 -40
19 -12 1 -34 11 -48 22 -15 12 -31 21 -37 21 -10 0 -106 100 -107 112 0 4 -7
13 -15 21 -45 45 -118 260 -130 382 -3 33 -8 67 -10 75 -2 8 -7 31 -10 50 -3
19 -12 73 -20 120 -10 53 -16 159 -17 280 -2 178 0 199 19 240 37 82 130 140
223 140 31 0 60 3 64 7 16 16 123 24 174 12 53 -12 75 1 35 22 -16 8 -33 20
-39 28 -6 8 -16 11 -22 7 -8 -5 -10 -1 -6 9 4 9 13 14 21 11 52 -20 63 -18 80
13 22 39 36 39 63 1 39 -55 117 -77 180 -52 55 22 117 105 107 143 -3 11 0 19
5 19 21 0 86 -79 94 -115 10 -39 30 -45 26 -7 -4 26 10 29 32 6 15 -14 16 -14
16 0 0 9 5 16 10 16 6 0 10 -2 10 -4 0 -2 3 -11 6 -20 4 -11 0 -16 -14 -16
-12 0 -24 -4 -27 -10 -10 -16 31 -12 45 5 11 13 11 28 -1 75 -4 15 1 16 58 19
30 1 40 51 18 85 -9 14 -14 30 -10 37 4 6 3 14 -3 18 -6 3 -13 25 -15 49 -4
35 -2 44 14 53 11 5 24 7 29 4 6 -3 10 -2 10 4 0 5 -5 13 -11 17 -6 3 -8 15
-6 25 6 23 -64 93 -116 118 -17 8 -34 18 -37 21 -14 15 -53 30 -77 30 -14 0
-24 3 -21 6 3 3 -5 16 -18 29 -24 24 -24 26 -9 55 8 16 16 33 16 37 1 5 13 13
28 20 24 10 23 11 -14 6 l-40 -4 33 17 c19 10 36 24 39 32 3 8 33 27 67 43 34
17 86 43 116 59 30 16 61 29 69 29 7 1 47 24 87 51 40 28 77 50 81 50 4 1 42
33 83 72 78 73 72 74 -15 2 -79 -66 -317 -193 -362 -194 -29 0 -10 18 35 35
46 18 109 55 69 41 -10 -3 -44 -13 -77 -21 -33 -8 -67 -18 -77 -21 -10 -3 -3
6 15 21 18 15 30 31 27 36 -4 5 0 9 7 9 10 0 10 2 1 8 -9 5 -1 19 25 47 20 22
37 43 37 46 0 8 48 59 56 59 3 0 25 18 49 40 23 22 51 42 61 45 11 4 19 13 19
21 0 16 75 94 89 94 5 0 40 20 78 45 37 25 74 45 82 45 8 0 12 3 9 6 -14 13
166 149 183 138 5 -3 12 2 15 10 3 9 15 16 25 16 23 0 15 -27 -11 -35 -10 -3
-20 -13 -22 -23 -3 -9 -26 -27 -51 -40 -31 -15 -47 -30 -47 -42 0 -10 -7 -25
-15 -34 -8 -8 -15 -18 -15 -22 0 -4 -21 -34 -46 -66 -31 -40 -40 -58 -30 -58
21 0 21 -16 0 -24 -8 -3 -13 -10 -10 -15 6 -9 95 75 191 182 33 36 61 64 64
62 2 -3 -27 -40 -65 -82 -39 -43 -80 -91 -93 -108 -12 -16 -45 -54 -73 -82
-28 -29 -47 -53 -43 -53 14 0 94 76 141 135 27 33 52 61 55 63 4 2 50 56 102
120 88 109 183 202 205 202 6 0 13 7 16 16 3 8 10 13 14 10 5 -3 24 8 43 24
19 16 39 29 45 30 6 0 25 14 42 30 35 33 52 38 52 14z m355 -1306 c4 -3 -22
-13 -57 -22 l-63 -16 55 6 c30 3 60 5 65 5 34 0 61 -6 67 -15 5 -7 18 -6 41 2
45 16 52 15 54 -6 1 -10 -11 -26 -25 -36 -23 -14 -24 -16 -5 -11 22 6 83 -19
83 -34 0 -4 -23 -11 -52 -14 -52 -7 -151 14 -163 34 -4 5 -17 9 -30 9 -14 0
-29 8 -35 19 -7 14 -20 19 -42 19 -18 -1 -34 4 -36 10 -2 7 -13 12 -24 12 -14
0 -18 5 -15 15 5 11 1 12 -20 4 -22 -8 -24 -7 -14 5 9 10 9 15 0 18 -6 2 39 3
99 3 61 0 113 -3 117 -7z m1159 -80 c8 -18 20 -51 26 -73 7 -22 16 -44 20 -50
12 -17 52 -148 56 -185 3 -19 8 -44 13 -55 6 -11 12 -33 14 -50 2 -16 11 -57
20 -90 22 -86 31 -152 19 -140 -5 6 -24 69 -42 140 -18 72 -43 151 -56 178
-13 26 -26 70 -30 97 -4 28 -10 50 -14 50 -12 0 -30 74 -24 98 4 12 2 28 -4
35 -11 14 -26 77 -18 77 3 0 12 -15 20 -32z m-1405 -54 c20 -4 45 -11 56 -17
11 -6 23 -10 28 -9 12 4 8 -15 -8 -28 -8 -6 -19 -9 -25 -5 -5 3 -10 1 -10 -6
0 -7 -9 -9 -27 -4 -16 4 -40 7 -55 6 -15 0 -30 3 -32 8 -9 14 -212 -21 -259
-44 -26 -13 70 68 98 83 57 30 128 35 234 16z m-1507 -84 c62 -30 157 -104
146 -115 -5 -6 -36 9 -80 38 -43 29 -134 49 -235 50 l-92 2 45 22 c87 42 133
43 216 3z m3067 -1472 c-6 -40 -12 -105 -13 -144 -1 -49 -5 -70 -13 -67 -6 2
-11 -2 -10 -9 0 -7 -1 -26 -1 -42 -2 -25 -4 -27 -18 -15 -15 12 -16 11 -9 -11
4 -14 13 -29 20 -35 8 -6 9 -19 5 -35 -5 -14 -8 -20 -9 -13 -1 7 -8 10 -16 7
-10 -4 -13 -14 -9 -29 4 -15 0 -24 -11 -29 -9 -3 -14 -10 -11 -15 3 -5 2 -20
-3 -33 l-9 -23 -7 27 c-4 16 -5 35 -1 43 3 8 1 15 -3 15 -5 0 -9 36 -8 80 0
44 4 77 9 74 5 -4 7 -13 4 -21 -3 -8 -1 -11 4 -8 13 8 7 45 -9 54 -10 7 -8 26
10 90 13 45 29 81 36 81 7 0 10 7 7 15 -4 9 0 15 7 15 28 0 39 17 44 70 8 70
17 95 23 58 2 -15 -2 -60 -9 -100z m141 -1455 c0 -7 -5 -13 -11 -13 -5 0 -2
-13 8 -30 9 -16 21 -30 25 -30 9 0 39 -56 36 -67 -2 -5 9 -21 23 -37 17 -18
25 -36 22 -50 -3 -15 -2 -17 5 -8 7 11 10 10 14 -5 6 -24 -1 -43 -16 -43 -28
0 -66 43 -86 98 -12 31 -32 74 -46 94 -25 38 -32 64 -14 53 5 -3 3 10 -5 30
-9 20 -11 35 -5 35 5 0 10 10 10 23 0 20 2 20 20 -8 11 -16 20 -36 20 -42z
m-1390 -990 c0 -2 -4 -2 -8 1 -4 2 -14 -4 -21 -16 -9 -15 -10 -18 0 -12 9 5
10 1 6 -17 -5 -20 -4 -21 6 -8 7 8 22 15 35 15 20 0 22 -5 22 -53 0 -30 -9
-78 -19 -108 -11 -30 -17 -55 -13 -55 3 0 -3 -7 -14 -16 -18 -15 -18 -15 2 -5
12 6 25 7 29 3 5 -4 5 -1 1 6 -4 6 -3 12 3 12 5 0 13 9 16 21 4 11 9 18 12 16
8 -8 -6 -42 -25 -64 -9 -11 -41 -35 -70 -53 -29 -18 -51 -35 -48 -38 3 -3 14
2 23 10 17 14 63 31 63 22 0 -2 -12 -28 -26 -58 -14 -30 -24 -61 -22 -68 3 -7
-12 -40 -33 -74 -20 -33 -49 -87 -65 -120 -15 -32 -36 -71 -47 -86 -17 -27
-17 -28 0 -22 10 3 7 -2 -7 -10 -35 -21 -45 -20 -46 7 -1 12 -3 36 -4 52 -3
53 20 149 45 187 14 21 25 41 25 46 0 4 16 23 35 42 40 39 46 57 13 38 -13 -7
-27 -11 -32 -10 -4 2 -14 -2 -22 -9 -18 -15 -28 10 -21 49 21 114 32 150 64
200 20 31 37 65 39 77 5 37 32 110 33 90 2 -18 3 -18 15 4 8 14 11 31 8 39 -3
8 7 4 21 -9 15 -12 27 -24 27 -26z m1604 -435 c-5 -7 -1 -9 9 -5 13 5 17 1 18
-16 2 -22 8 -140 12 -207 1 -19 -2 -76 -7 -126 -7 -79 -12 -96 -36 -124 -25
-29 -28 -31 -34 -13 -3 10 -1 52 5 93 23 161 28 206 22 224 -3 10 1 22 8 27
15 9 13 102 -2 107 -5 2 -9 17 -9 33 0 18 4 28 10 24 6 -4 7 -11 4 -17z
m-1917 -250 c5 -23 8 -27 12 -15 4 9 6 -9 6 -40 1 -33 8 -72 17 -90 9 -17 13
-43 10 -59 -4 -20 -2 -25 8 -19 9 6 10 3 1 -14 -13 -24 -23 -28 -15 -6 4 8 2
15 -4 15 -5 0 -17 -18 -26 -40 -9 -22 -20 -40 -24 -40 -10 0 -32 67 -32 94 0
12 -6 16 -17 12 -14 -4 -18 0 -19 19 -1 14 2 25 7 25 5 0 9 -7 9 -16 0 -8 4
-13 9 -9 6 3 6 18 0 38 -19 63 9 177 43 177 5 0 11 -14 15 -32z m1809 -959
c-4 -26 -2 -42 8 -52 23 -23 30 -108 16 -199 -16 -103 -28 -118 -71 -87 -27
19 -29 23 -15 31 20 11 21 48 1 48 -8 0 -15 5 -15 10 0 6 5 10 10 10 6 0 10 7
10 15 0 8 5 15 12 15 6 0 8 3 5 7 -4 3 1 12 11 20 9 8 11 12 5 8 -9 -4 -13 1
-13 14 0 22 19 30 21 9 0 -10 2 -10 6 0 2 6 11 12 19 12 18 0 18 16 -2 50 -11
18 -23 26 -34 23 -34 -9 -35 34 -3 141 10 36 36 -30 29 -75z m-5499 -118 c2
-35 -1 -39 -28 -45 -16 -3 -29 -10 -29 -16 0 -6 4 -9 9 -5 15 9 23 -12 27 -68
2 -38 -2 -60 -17 -85 -11 -19 -17 -42 -14 -51 3 -10 -4 -27 -16 -40 -11 -12
-18 -28 -16 -35 3 -8 0 -19 -6 -25 -6 -6 -12 -21 -14 -33 -2 -13 -8 -24 -13
-26 -5 -2 -6 -10 -3 -18 4 -11 9 -12 19 -3 8 6 14 17 14 23 0 7 6 21 14 32 13
17 13 14 3 -23 -8 -30 -17 -43 -33 -47 -12 -3 -27 -18 -32 -33 -6 -16 -17 -37
-25 -48 l-16 -20 2 20 c1 14 -4 20 -18 20 -13 0 -21 8 -23 24 -2 15 0 21 7 17
14 -9 26 24 41 105 13 72 40 141 47 121 4 -10 8 -10 19 -1 19 15 18 39 -1 39
-8 0 -15 -5 -15 -12 0 -6 -3 -8 -6 -5 -14 13 71 267 88 267 5 0 6 -6 3 -12 -3
-7 0 -5 7 5 19 25 24 21 25 -22z m-561 -590 c5 -4 24 -11 43 -15 27 -5 32 -3
27 9 -6 18 6 19 55 5 30 -8 37 -15 37 -35 0 -18 -6 -25 -19 -25 -23 0 -25 -18
-4 -26 18 -7 20 -28 3 -21 -7 2 -21 -5 -30 -16 -10 -11 -18 -15 -18 -8 0 8 -6
6 -17 -4 -14 -14 -14 -20 -4 -37 12 -19 11 -20 -13 -16 -18 4 -26 1 -26 -9 0
-10 6 -13 16 -9 12 4 14 1 9 -14 -5 -14 -2 -20 9 -20 18 0 21 -16 5 -26 -8 -4
-7 -9 2 -15 7 -4 10 -11 6 -15 -3 -4 -12 -2 -19 4 -9 7 -17 6 -25 -3 -14 -15
-2 -28 19 -20 7 3 20 0 28 -5 13 -9 13 -11 0 -20 -13 -8 -12 -11 4 -23 14 -10
16 -16 7 -21 -16 -10 -23 -3 -25 28 -1 30 -21 29 -21 0 0 -10 -6 -19 -13 -19
-6 0 -12 4 -11 8 0 10 -40 47 -52 47 -4 0 -16 18 -27 39 l-21 39 22 7 22 8
-22 4 c-24 5 -40 41 -34 76 1 10 -4 26 -12 35 -18 20 -14 71 5 83 10 7 10 9 1
9 -7 0 -13 4 -13 9 0 6 19 12 43 14 23 2 44 4 48 5 3 1 9 -2 15 -7z m5475
-238 c3 -60 -2 -76 -34 -106 -40 -37 -64 -77 -47 -77 14 0 33 19 49 49 8 14
16 20 22 14 6 -6 4 -21 -6 -39 -8 -16 -18 -45 -21 -64 -10 -60 -13 -67 -25
-50 -8 11 -9 10 -4 -8 4 -15 1 -24 -10 -28 -12 -5 -13 -9 -5 -14 7 -4 9 -13 5
-19 -5 -9 -10 -9 -21 0 -12 10 -16 8 -21 -9 -3 -12 -12 -22 -19 -22 -8 0 -14
-7 -14 -15 0 -12 4 -13 19 -5 36 19 41 12 27 -34 -15 -48 -70 -131 -93 -140
-8 -3 -29 0 -47 8 -32 13 -33 13 -28 -10 2 -12 -3 -33 -12 -46 -9 -12 -16 -30
-16 -39 0 -22 -38 -69 -56 -69 -18 0 -18 36 0 112 16 64 7 82 -32 71 -12 -3
-29 -2 -38 1 -14 5 -12 10 12 29 16 12 32 21 37 19 5 -1 20 25 35 58 19 42 32
60 45 60 23 0 57 18 57 29 0 5 -10 7 -22 4 -20 -5 -19 -1 13 33 52 57 106 137
121 181 25 69 58 122 86 137 38 21 42 20 43 -11z m911 -355 c-7 -7 -12 -27
-12 -45 0 -27 -4 -33 -21 -33 -15 0 -19 -5 -15 -15 3 -8 -2 -18 -11 -23 -9 -6
-12 -12 -5 -16 5 -3 15 1 22 9 17 21 33 19 48 -5 13 -21 8 -45 -7 -36 -4 3
-13 -10 -18 -29 l-11 -34 29 14 c36 19 50 19 43 0 -4 -9 -1 -15 7 -15 10 0 10
-3 2 -11 -8 -8 -8 -20 -2 -36 6 -16 6 -22 -1 -18 -6 4 -17 1 -26 -5 -11 -10
-12 -16 -3 -26 9 -11 8 -14 -5 -14 -17 0 -20 -8 -8 -27 5 -8 13 -9 22 -3 24
15 36 11 14 -5 -19 -14 -19 -14 1 -15 l20 -1 -20 -8 c-11 -5 -25 -6 -32 -4 -7
3 -15 -7 -19 -21 -3 -14 -8 -26 -11 -26 -13 0 -43 22 -43 32 0 7 5 6 15 -2 13
-11 14 -10 6 11 -6 17 -16 23 -31 21 -14 -1 -20 2 -17 10 2 7 -2 21 -11 30
-14 16 -12 20 13 39 23 19 25 23 11 31 -9 5 -16 15 -16 22 0 8 -6 16 -14 19
-9 4 -12 14 -9 26 4 15 1 21 -12 21 -9 0 -15 6 -12 13 2 6 10 11 17 9 8 -2 11
4 8 16 -7 24 10 55 24 46 7 -5 9 -1 5 9 -4 11 -1 17 9 17 8 0 23 7 32 17 15
15 15 17 0 26 -14 9 -12 13 16 32 32 22 49 24 28 3z m-6330 -113 c-2 -14 -8
-25 -13 -25 -5 0 -9 -9 -9 -20 0 -11 5 -20 10 -20 6 0 10 8 8 18 -2 10 3 17
12 17 8 0 18 7 22 15 5 8 5 0 2 -17 -3 -20 -1 -33 5 -33 16 0 23 38 11 60 -15
28 -10 31 20 15 14 -8 19 -14 12 -15 -8 0 -10 -8 -6 -24 3 -13 1 -27 -5 -30
-18 -12 -12 -24 8 -19 15 4 19 0 17 -14 -2 -10 -10 -17 -18 -15 -8 1 -15 -5
-15 -13 0 -8 6 -15 14 -15 7 0 13 -9 13 -20 0 -24 -28 -27 -45 -4 -10 15 -12
13 -13 -15 -1 -28 1 -30 20 -20 11 6 22 8 25 6 9 -10 -21 -45 -34 -40 -7 3
-17 -5 -23 -18 -9 -21 -9 -20 -5 10 5 41 -5 63 -16 35 -7 -17 -8 -17 -8 -1 -1
9 -5 17 -11 17 -16 0 -12 -48 6 -75 9 -13 13 -29 9 -35 -4 -6 -1 -17 5 -25 6
-8 9 -19 5 -26 -8 -12 13 -59 27 -59 4 0 8 7 8 15 0 8 4 15 9 15 5 0 8 -8 6
-17 -2 -10 -4 -21 -4 -26 -1 -9 -47 0 -79 16 -18 9 -25 8 -34 -3 -8 -13 -9
-13 -5 0 15 42 33 70 45 65 6 -2 12 2 12 11 0 10 -8 13 -26 10 -19 -4 -27 0
-34 17 -8 21 -9 20 -9 -6 -1 -15 5 -30 14 -33 11 -5 12 -10 3 -24 -7 -10 -16
-16 -21 -13 -5 3 -6 -7 -3 -24 5 -23 3 -30 -9 -30 -29 0 -45 37 -36 80 5 20 7
37 4 37 -2 0 2 7 11 15 11 12 13 22 6 40 -7 17 -5 28 4 37 8 9 10 21 5 33 -11
29 -10 45 2 45 6 0 9 -7 5 -15 -3 -8 -1 -15 3 -15 16 0 32 62 20 76 -9 11 -8
14 5 14 9 0 16 7 16 16 0 8 -4 13 -9 9 -5 -3 -12 -1 -16 5 -3 5 0 10 7 11 12
0 -27 21 -44 23 -3 1 -10 5 -15 9 -4 5 10 7 32 5 27 -3 50 2 70 14 17 10 31
18 31 18 1 0 -1 -11 -4 -25z m770 -422 c10 -9 18 -26 18 -39 0 -13 13 -33 31
-48 35 -29 55 -92 37 -113 -6 -7 -28 -13 -49 -13 -42 0 -69 26 -69 69 0 23 1
23 19 7 19 -17 19 -17 14 6 -4 12 -9 25 -13 28 -10 7 -23 120 -14 120 4 0 16
-7 26 -17z m864 -83 c11 0 33 -51 62 -138 9 -28 8 -34 -8 -42 -27 -15 -108
-12 -165 5 -40 13 -55 13 -73 4 -17 -10 -25 -10 -34 -1 -9 9 -8 12 5 12 9 0
17 3 17 8 -1 10 -41 38 -70 47 l-25 8 24 8 c12 5 27 7 32 3 5 -3 9 2 9 10 0 9
5 16 10 16 6 0 10 -8 10 -19 0 -25 20 -29 110 -22 73 6 75 7 72 31 -2 14 -10
35 -18 47 -19 31 -18 36 9 29 12 -3 27 -6 33 -6z"/>
<path d="M4125 6581 l-40 -18 50 -32 c48 -31 53 -31 130 -26 86 6 118 -3 97
-28 -17 -20 4 -43 53 -56 64 -17 109 -14 131 10 19 21 18 21 -3 39 -23 18 -23
18 -3 43 19 24 19 25 1 30 -10 2 -62 5 -115 6 -84 2 -101 5 -133 27 -44 29
-110 32 -168 5z"/>
<path d="M3784 6529 c-25 -28 -119 -89 -137 -89 -8 0 -20 -7 -27 -15 -7 -8
-21 -15 -31 -15 -10 0 -37 -9 -59 -21 -22 -12 -55 -21 -74 -21 -26 0 -33 -4
-29 -15 4 -11 0 -13 -23 -7 -16 4 -36 10 -45 15 -8 4 -21 4 -29 -1 -7 -4 -19
-6 -27 -3 -13 5 -15 -1 -15 -32 0 -28 2 -31 40 -48 26 -11 53 -15 89 -11 39 3
52 1 56 -10 3 -8 24 -20 46 -26 30 -8 48 -22 71 -54 33 -45 53 -50 107 -24 30
15 64 4 99 -31 16 -17 35 -31 42 -31 6 0 12 -4 12 -10 0 -5 7 -10 16 -10 8 0
25 -5 37 -12 26 -13 63 -17 79 -7 6 4 21 3 34 -1 32 -12 61 -2 68 25 8 30 47
37 104 17 41 -13 50 -13 98 2 50 16 57 16 118 -1 61 -16 68 -16 119 0 55 17
118 20 172 8 17 -4 46 -2 69 6 50 17 71 16 90 -2 10 -10 24 -13 41 -9 36 9 32
-12 -5 -25 -34 -11 -40 -31 -10 -31 11 0 20 -7 20 -16 0 -10 6 -13 19 -9 12 3
21 0 25 -10 7 -19 36 -20 36 -1 0 8 6 17 13 20 6 3 2 3 -10 0 -13 -3 -23 -1
-23 4 0 6 24 16 53 23 41 11 66 27 119 76 59 56 72 63 107 63 29 0 44 -6 54
-21 15 -20 15 -20 35 6 12 15 24 35 27 45 3 11 16 22 28 26 21 7 29 9 73 12
23 2 53 26 70 57 11 19 7 22 -65 39 -94 23 -176 55 -227 90 -57 38 -57 32 -4
-77 13 -26 21 -49 19 -50 -28 -21 -60 -36 -86 -41 -18 -4 -43 -16 -57 -27 -34
-27 -111 -38 -274 -40 -75 0 -162 -5 -192 -10 -30 -6 -75 -13 -100 -17 -48 -7
-212 -6 -270 3 -19 3 -114 8 -210 10 -96 3 -188 7 -204 10 -36 6 -116 46 -116
57 0 4 -9 8 -21 8 -25 0 -59 17 -59 30 0 5 21 33 48 62 26 29 61 80 77 113 17
33 35 63 40 67 6 5 3 8 -6 8 -9 0 -24 -10 -35 -21z"/>
<path d="M4926 5974 c-3 -9 -12 -14 -19 -11 -7 2 -16 -10 -22 -31 -8 -28 -15
-35 -37 -36 -15 -1 -35 -9 -46 -19 -10 -9 -22 -17 -26 -17 -4 0 -23 -12 -42
-26 -19 -15 -37 -24 -41 -21 -3 4 -21 0 -39 -8 -38 -16 -127 -29 -194 -30 -25
0 -47 -3 -50 -7 -3 -3 -43 -2 -88 3 -61 7 -99 18 -144 41 -61 32 -71 39 -140
102 -20 19 -47 37 -58 41 -20 6 -21 5 -11 -14 7 -12 20 -21 31 -21 14 0 18 -6
17 -27 -2 -22 3 -29 21 -31 12 -2 22 -8 22 -13 0 -6 4 -8 9 -5 5 3 16 -5 25
-18 8 -13 34 -32 56 -42 22 -10 39 -23 37 -28 -15 -41 167 -104 248 -86 21 5
46 5 54 0 30 -15 128 10 116 30 -4 6 -3 9 2 8 17 -4 59 16 95 46 20 17 54 40
75 51 21 11 40 23 43 26 3 4 20 15 39 26 19 10 42 33 50 51 9 17 21 32 27 32
14 0 26 28 18 41 -8 14 -21 11 -28 -7z"/>
<path d="M5630 2408 c0 -6 12 -27 26 -45 18 -24 23 -38 16 -45 -11 -11 22 -76
43 -85 7 -2 28 -26 46 -54 19 -27 38 -49 42 -49 5 0 23 -15 41 -32 53 -52 108
-101 151 -132 61 -45 70 -55 56 -69 -6 -6 -11 -20 -11 -30 0 -17 5 -18 35 -13
35 7 80 -8 70 -23 -2 -5 2 -14 10 -21 8 -7 12 -17 9 -22 -3 -5 -3 -25 0 -44 6
-31 9 -33 27 -23 31 16 51 -14 44 -71 l-4 -45 14 30 c8 17 14 42 15 58 0 17 5
27 15 27 13 0 14 4 5 20 -8 14 -8 32 -1 57 6 20 9 39 6 41 -2 2 -9 -14 -15
-37 -6 -23 -15 -41 -21 -41 -5 0 -46 36 -91 80 -46 44 -85 80 -88 80 -3 0 -37
31 -76 68 -57 55 -73 78 -82 115 -13 48 -24 61 -57 62 -15 0 -20 7 -21 29 -1
27 -44 76 -66 76 -12 0 -98 92 -114 123 -15 29 -24 34 -24 15z"/>
<path d="M5682 2130 c-9 -15 -8 -17 9 -13 15 4 19 0 19 -20 0 -14 5 -29 10
-32 6 -3 10 -15 10 -25 0 -13 5 -17 15 -14 9 4 15 0 15 -10 0 -9 -7 -16 -15
-16 -19 0 -19 -34 0 -50 21 -18 66 -16 80 4 7 8 15 12 19 8 14 -13 -19 53 -33
68 -9 10 -10 15 -2 18 6 2 11 7 11 11 0 14 -59 73 -68 68 -4 -3 -20 0 -34 7
-22 12 -26 11 -36 -4z"/>
<path d="M4962 1903 c-6 -26 -16 -86 -22 -133 -6 -47 -18 -113 -26 -147 -8
-34 -11 -68 -8 -76 3 -8 1 -18 -5 -22 -6 -3 -11 -14 -11 -23 0 -15 2 -15 10
-2 10 16 11 11 12 -110 1 -30 -2 -95 -6 -145 -4 -49 -7 -94 -7 -100 0 -11 16
-153 30 -264 l10 -74 -41 -39 c-47 -45 -43 -59 10 -34 l37 17 -27 -26 c-16
-14 -28 -30 -28 -35 0 -6 -6 -10 -14 -10 -23 0 -76 -34 -82 -52 -3 -10 -10
-18 -15 -18 -20 0 -7 24 31 59 57 52 35 65 -31 20 -27 -19 -37 -49 -44 -129
-1 -25 -7 -74 -12 -110 -5 -36 -8 -87 -7 -115 1 -27 -3 -56 -8 -62 -6 -7 -7
-24 -4 -38 4 -14 3 -31 -1 -38 -4 -7 -8 -16 -8 -22 0 -5 -4 -25 -9 -43 -7 -29
-3 -39 30 -82 27 -36 45 -50 63 -50 23 0 24 1 6 20 -10 11 -15 20 -11 20 4 0
15 -9 25 -21 10 -13 25 -20 39 -17 20 3 18 7 -28 61 -28 32 -50 64 -50 70 0 6
-9 21 -21 33 -20 21 -20 23 -4 149 9 70 14 136 12 146 -3 11 -2 21 2 23 4 3
13 28 21 55 7 28 16 51 19 51 3 0 28 20 56 45 27 25 57 45 66 45 9 0 22 7 29
15 19 23 30 18 44 -17 28 -69 29 -78 7 -78 -18 0 -21 -7 -22 -42 -2 -62 -5
-84 -14 -98 -4 -7 -11 -53 -16 -104 -5 -50 -13 -127 -18 -171 -10 -89 -6 -100
42 -109 68 -13 189 -18 183 -8 -3 6 -21 10 -40 10 -19 0 -40 4 -47 8 -8 4 -36
13 -64 19 l-50 12 0 71 c0 40 3 72 6 72 4 0 10 24 14 53 7 50 8 51 15 20 7
-30 -1 -109 -16 -155 -4 -13 -1 -24 7 -29 11 -7 11 -9 1 -9 -7 0 -10 -4 -7
-10 3 -5 21 -10 39 -10 18 0 48 -5 66 -11 47 -17 48 -12 66 180 6 61 4 73 -7
69 -9 -3 -19 -39 -29 -109 l-16 -104 -38 2 c-22 2 -41 5 -43 7 -2 2 1 61 8
131 8 92 9 129 1 137 -8 8 -13 7 -16 -3 -2 -8 -7 -21 -10 -29 -3 -8 -4 26 -3
76 1 51 5 90 9 88 3 -2 8 2 10 11 2 9 8 12 17 6 10 -6 11 -13 2 -29 -13 -24
-15 -92 -3 -92 4 0 12 14 17 32 10 33 14 34 79 29 17 -1 18 -8 12 -71 -5 -66
-4 -70 15 -70 11 0 27 7 35 15 8 8 22 11 30 8 14 -5 15 -1 9 28 -4 19 -9 43
-10 54 -4 31 -5 31 -20 11 -14 -19 -15 -18 -15 16 0 34 -2 37 -38 43 -21 3
-43 5 -48 4 -20 -3 -34 1 -34 12 0 18 101 0 141 -26 50 -32 76 -11 36 30 -17
16 -61 24 -190 34 -9 1 -46 80 -47 100 0 10 8 12 30 8 16 -4 32 -2 35 3 4 6
13 6 23 1 9 -5 51 -15 92 -22 82 -13 119 -38 166 -111 22 -34 23 -42 16 -143
-4 -59 -4 -109 0 -111 5 -3 1 -12 -7 -20 -8 -9 -16 -27 -16 -42 -1 -15 -3 -53
-5 -85 -2 -33 0 -66 6 -75 8 -15 10 -15 11 3 3 35 7 59 17 100 10 40 10 40 11
-22 1 -67 15 -85 24 -30 3 17 10 63 17 101 7 39 8 71 3 75 -11 8 -10 21 4 47
7 12 15 57 18 100 4 44 8 84 10 90 2 7 -8 22 -22 35 l-26 24 7 -45 c5 -37 4
-41 -6 -25 -6 11 -14 22 -17 25 -3 3 -12 13 -20 23 -12 15 -12 19 5 31 17 13
16 16 -21 62 -51 63 -53 64 -100 62 -22 -1 -50 4 -62 10 -12 7 -29 9 -37 6
-31 -12 -61 6 -89 51 -16 25 -33 45 -38 45 -16 0 -9 -30 11 -47 26 -23 25 -41
-2 -45 -37 -5 -66 14 -71 47 -3 16 -9 46 -14 65 -5 19 -10 109 -10 200 -1 132
0 151 7 94 4 -40 13 -80 19 -90 10 -15 11 -2 5 61 -9 93 -12 230 -6 263 3 16
9 21 19 17 12 -4 13 -1 7 12 -5 10 -8 45 -7 78 2 51 0 56 -9 35 -11 -24 -12
-23 -18 20 -4 24 -3 62 2 85 5 22 7 50 5 63 -2 12 -1 22 3 22 4 0 7 20 5 44
-2 24 2 67 7 96 12 66 3 78 -10 13z"/>
<path d="M5207 1891 c-20 -40 -24 -56 -17 -85 5 -22 4 -38 -2 -42 -6 -4 -5
-10 3 -15 10 -6 8 -9 -8 -9 -12 0 -25 5 -28 10 -22 35 -54 -32 -60 -125 -2
-38 0 -45 16 -45 11 0 19 -7 19 -15 0 -8 4 -15 9 -15 5 0 17 -7 26 -16 15 -15
18 -15 32 -1 18 18 11 45 -14 54 -31 11 -60 38 -55 51 6 18 20 14 18 -5 -1
-15 6 -17 44 -15 25 2 50 8 57 14 8 6 19 6 32 -1 26 -15 26 -15 29 14 1 19 -3
25 -19 25 -16 0 -19 4 -14 20 4 11 3 19 -2 18 -4 -2 -9 -1 -10 2 -1 3 -8 21
-16 40 -11 25 -12 41 -5 60 14 37 19 98 7 105 -5 4 -7 11 -4 16 4 5 2 9 -3 9
-5 0 -21 -22 -35 -49z"/>
<path d="M3685 862 c-25 -9 -26 -12 -31 -154 -4 -108 -3 -118 13 -115 10 1 24
6 31 10 23 15 33 -5 31 -62 -1 -32 1 -64 6 -71 5 -9 4 -11 -3 -6 -8 5 -12 0
-12 -13 0 -12 5 -21 10 -21 6 0 10 -5 10 -11 0 -5 -4 -8 -10 -4 -5 3 -10 -31
-12 -87 l-3 -93 -32 -3 c-18 -2 -33 -7 -33 -11 0 -4 -15 -5 -34 -3 -18 2 -37
-1 -40 -7 -4 -6 0 -11 9 -11 18 0 36 -40 34 -78 -1 -21 -4 -17 -12 16 -8 36
-14 43 -30 38 -10 -2 -30 -1 -43 4 -16 6 -24 6 -24 -1 0 -6 -5 -7 -11 -3 -8 4
-8 9 -1 13 11 7 -36 121 -50 121 -33 0 43 -164 77 -166 11 -1 25 -2 31 -3 14
-1 28 -81 17 -92 -4 -4 -63 -9 -130 -11 l-123 -4 0 42 c0 39 2 43 30 49 35 8
35 8 13 41 -16 26 -17 26 -25 5 -5 -14 -16 -21 -34 -21 -24 0 -26 -2 -20 -32
3 -18 9 -52 12 -75 l6 -42 102 5 c171 8 209 12 218 26 6 10 10 7 14 -10 6 -21
10 -22 128 -21 l121 2 -93 7 c-51 5 -96 10 -98 13 -3 2 -6 44 -7 93 l-2 89 33
-3 32 -3 0 83 c0 53 -5 89 -12 97 -7 8 -8 11 -2 8 11 -7 18 49 17 136 -2 102
-4 107 -35 107 -18 0 -28 5 -28 15 0 8 -6 15 -12 15 -10 0 -10 2 0 9 7 4 12
12 11 17 -1 5 -1 19 0 32 1 26 21 30 21 4 0 -31 27 -21 28 10 0 15 3 32 7 38
3 5 46 10 96 10 74 0 89 3 89 16 0 13 -17 15 -112 14 -138 -1 -136 -2 -120 8
6 5 71 7 144 6 103 -3 134 -6 145 -19 7 -8 8 -10 1 -5 -15 13 -48 13 -48 1 0
-6 12 -23 26 -38 15 -15 31 -40 36 -55 8 -23 35 -44 44 -35 2 1 -8 26 -21 55
-13 29 -23 52 -21 52 2 0 21 -25 41 -55 21 -30 40 -55 42 -55 8 0 -8 55 -17
58 -5 2 -10 10 -10 19 0 27 -52 103 -74 109 -37 9 -127 10 -133 1 -2 -4 -19
-5 -36 -2 -60 11 -112 14 -132 7z"/>
<path d="M3192 814 c-17 -7 -33 -10 -36 -7 -3 3 -29 2 -59 -1 l-53 -7 -12 -82
c-6 -45 -18 -118 -26 -161 -9 -44 -13 -82 -10 -85 2 -3 7 5 11 17 6 25 23 30
23 7 0 -23 19 -18 29 8 9 23 30 132 35 182 2 17 4 33 5 38 0 4 25 7 54 7 28 0
65 7 81 15 25 13 27 13 22 0 -3 -8 -1 -15 4 -15 5 0 12 -17 16 -37 7 -42 53
-165 64 -173 4 -3 9 -21 13 -40 8 -53 35 -110 52 -110 19 0 19 3 -5 47 -11 21
-20 45 -20 53 0 9 -6 24 -13 35 -7 11 -14 31 -14 45 -1 22 1 21 15 -10 9 -19
20 -37 23 -40 3 -3 9 -12 12 -20 3 -8 6 3 6 25 1 27 -10 64 -33 110 -18 39
-48 100 -65 138 -18 37 -35 68 -39 68 -33 6 -54 4 -80 -7z"/>
<path d="M4241 712 c-25 -41 -53 -84 -63 -95 l-16 -22 -19 32 c-20 36 -38 38
-37 4 0 -14 -4 -20 -12 -17 -8 3 -16 1 -19 -4 -10 -15 65 -150 83 -150 4 0 15
13 24 30 17 30 11 44 -14 35 -9 -4 -22 9 -37 35 -12 22 -20 40 -17 40 3 0 13
-14 22 -32 l16 -31 34 39 c18 21 47 64 63 94 17 30 40 69 51 86 17 27 18 31 4
31 -10 0 -36 -32 -63 -75z"/>
<path d="M3161 568 c-7 -40 -15 -83 -18 -95 -10 -44 12 -23 30 28 14 39 21 49
30 40 9 -9 9 -14 -1 -20 -7 -4 -18 -33 -24 -64 -13 -63 -4 -86 29 -72 17 8 17
8 1 12 -21 5 -23 17 -4 35 8 9 11 27 8 48 -3 23 -1 32 6 25 13 -14 52 -121 52
-145 0 -14 7 -20 21 -20 18 0 20 4 15 26 -4 15 -14 34 -23 42 -10 11 -12 17
-4 20 15 5 14 22 -2 22 -15 0 -37 43 -63 124 -10 33 -24 61 -30 63 -6 2 -16
-26 -23 -69z"/>
<path d="M3931 558 c0 -18 4 -59 8 -91 4 -32 5 -60 2 -62 -9 -5 -14 -191 -6
-225 6 -27 10 -30 47 -30 34 0 39 -3 33 -18 -4 -9 -11 -33 -14 -52 -3 -19 -12
-35 -18 -35 -7 0 -17 -5 -24 -12 -8 -8 -6 -14 10 -23 17 -9 28 -8 53 4 38 20
42 20 34 1 -3 -9 0 -15 9 -15 21 0 22 192 2 209 -11 8 -14 0 -16 -42 -3 -62
-9 -72 -17 -29 -6 28 -11 32 -38 32 l-31 0 0 128 c1 70 2 142 3 161 l2 34 55
-59 c50 -55 70 -60 44 -12 -16 30 -120 162 -130 166 -5 2 -9 -11 -8 -30z"/>
<path d="M4582 477 c-13 -15 -16 -265 -4 -283 4 -7 16 -13 27 -15 24 -5 33
-35 34 -116 1 -49 4 -63 16 -63 18 0 20 16 3 23 -10 4 -10 6 0 6 14 1 17 31 2
31 -5 0 -10 5 -10 11 0 5 3 8 8 6 4 -3 8 26 9 64 l2 69 -32 0 c-31 0 -32 2
-33 43 -5 194 -7 237 -9 237 -1 0 -7 -6 -13 -13z"/>
<path d="M6351 368 c-48 -61 -73 -130 -57 -156 3 -6 29 -16 57 -22 59 -14 69
-8 69 47 0 18 5 55 11 84 11 49 10 53 -11 69 -13 10 -20 22 -16 29 4 6 5 11 2
11 -3 0 -28 -28 -55 -62z"/>
<path d="M4324 404 c3 -8 2 -12 -4 -9 -6 3 -14 -5 -19 -18 -6 -14 -15 -28 -21
-32 -5 -3 -8 -10 -5 -15 3 -5 -3 -11 -13 -14 -11 -4 -34 -27 -51 -52 -18 -25
-35 -43 -38 -40 -3 3 8 22 24 43 43 54 57 83 45 95 -6 6 -20 -3 -39 -26 l-29
-36 -34 35 c-34 35 -58 38 -40 4 14 -25 -2 -25 -25 1 -34 38 -49 23 -17 -17
16 -21 33 -45 38 -54 5 -9 26 -35 47 -58 46 -51 50 -49 108 51 22 37 44 68 49
68 8 0 13 -54 9 -86 0 -4 5 -10 12 -15 18 -11 -7 -40 -28 -32 -11 4 -14 2 -9
-5 4 -6 18 -11 31 -10 l25 2 0 118 c0 80 -4 118 -11 118 -6 0 -8 -7 -5 -16z"/>
<path d="M3770 369 c1 -24 1 -74 1 -111 l-1 -68 -29 0 c-20 0 -31 -6 -35 -17
-6 -21 -2 -130 5 -137 9 -10 89 -14 89 -5 0 5 5 9 11 9 5 0 7 -4 4 -10 -4 -6
14 -10 45 -10 37 0 50 4 47 13 -3 8 -30 12 -88 12 -93 0 -97 3 -84 71 4 25 11
34 25 34 11 0 20 6 20 14 0 7 7 19 15 26 15 13 12 55 -6 74 -13 14 -11 59 2
51 7 -5 9 9 7 41 -4 63 -30 75 -28 13z"/>
<path d="M4526 268 c-12 -45 -7 -98 10 -105 13 -5 13 -7 2 -14 -9 -6 -8 -9 8
-9 31 0 44 -20 44 -67 l0 -43 -99 0 c-55 0 -103 -4 -106 -10 -9 -15 33 -21
135 -18 l95 3 0 80 0 79 -29 1 c-28 0 -29 1 -30 59 -1 61 -18 86 -30 44z"/>
<path d="M3091 261 c-21 -21 -41 -80 -41 -123 0 -24 4 -27 37 -30 33 -3 39 -7
47 -36 5 -18 7 -35 4 -37 -3 -3 -32 -7 -65 -8 -44 -1 -59 -6 -56 -15 4 -8 29
-12 79 -12 74 0 74 0 75 28 1 27 1 27 8 3 8 -30 31 -40 31 -14 0 37 -44 165
-59 171 -9 4 -16 16 -16 27 0 11 -6 19 -12 18 -7 -2 -13 1 -13 6 0 4 28 12 63
16 106 13 124 9 145 -29 l17 -31 3 30 c6 45 -17 55 -130 55 -84 0 -101 -3
-117 -19z"/>
</g>
</svg>
